<svg xmlns="http://www.w3.org/2000/svg" viewBox="0 0 900 675" role="img" aria-labelledby="title desc">
  <title id="title">Soft toy teddy bear</title>
  <desc id="desc">Warm toy store illustration with a teddy bear on a pastel background.</desc>
  <defs>
    <linearGradient id="bg" x1="0" y1="0" x2="1" y2="1">
      <stop offset="0" stop-color="#fff1c7"/>
      <stop offset="0.55" stop-color="#ffd7d7"/>
      <stop offset="1" stop-color="#d9f7e8"/>
    </linearGradient>
    <filter id="shadow" x="-20%" y="-20%" width="140%" height="140%">
      <feDropShadow dx="0" dy="18" stdDeviation="18" flood-color="#9a3412" flood-opacity=".18"/>
    </filter>
  </defs>
  <rect width="900" height="675" fill="url(#bg)"/>
  <circle cx="150" cy="125" r="55" fill="#fbbf24" opacity=".45"/>
  <circle cx="760" cy="120" r="75" fill="#34d399" opacity=".25"/>
  <circle cx="730" cy="555" r="95" fill="#fb7185" opacity=".22"/>
  <g filter="url(#shadow)">
    <ellipse cx="450" cy="560" rx="205" ry="42" fill="#92400e" opacity=".16"/>
    <circle cx="325" cy="240" r="78" fill="#b77942"/>
    <circle cx="575" cy="240" r="78" fill="#b77942"/>
    <circle cx="325" cy="240" r="42" fill="#f5c27a"/>
    <circle cx="575" cy="240" r="42" fill="#f5c27a"/>
    <circle cx="450" cy="290" r="142" fill="#c98a4a"/>
    <ellipse cx="450" cy="455" rx="165" ry="150" fill="#c98a4a"/>
    <ellipse cx="450" cy="335" rx="77" ry="58" fill="#f6d39e"/>
    <ellipse cx="450" cy="455" rx="92" ry="85" fill="#f6d39e"/>
    <circle cx="402" cy="275" r="16" fill="#1f2937"/>
    <circle cx="498" cy="275" r="16" fill="#1f2937"/>
    <ellipse cx="450" cy="318" rx="22" ry="15" fill="#1f2937"/>
    <path d="M430 352c18 18 43 18 61 0" fill="none" stroke="#1f2937" stroke-width="10" stroke-linecap="round"/>
    <ellipse cx="290" cy="435" rx="50" ry="86" fill="#b77942" transform="rotate(25 290 435)"/>
    <ellipse cx="610" cy="435" rx="50" ry="86" fill="#b77942" transform="rotate(-25 610 435)"/>
    <ellipse cx="352" cy="565" rx="68" ry="45" fill="#b77942"/>
    <ellipse cx="548" cy="565" rx="68" ry="45" fill="#b77942"/>
  </g>
</svg>
